<svg xmlns="http://www.w3.org/2000/svg" width="1400" height="900" viewBox="0 0 1400 900" role="img" aria-labelledby="t d"><title id="t">Family Law Services in Pakistan</title><desc id="d">Legal consultation illustration for family law, child custody, divorce and guardianship matters.</desc><rect width="1400" height="900" fill="#eef2ef"/><circle cx="1130" cy="150" r="230" fill="#b18342" opacity=".16"/><rect x="90" y="110" width="560" height="660" rx="34" fill="#fff"/><rect x="150" y="180" width="300" height="28" rx="14" fill="#173b35"/><rect x="150" y="245" width="405" height="16" rx="8" fill="#b8c5c0"/><rect x="150" y="290" width="350" height="16" rx="8" fill="#d5ddd9"/><circle cx="270" cy="470" r="80" fill="#f5e4df"/><circle cx="470" cy="470" r="80" fill="#e8efe9"/><path d="M210 650c30-70 90-105 150-105s120 35 150 105" fill="none" stroke="#173b35" stroke-width="22" stroke-linecap="round"/><g transform="translate(770 240)"><rect x="0" y="300" width="430" height="180" rx="22" fill="#173b35"/><rect x="55" y="0" width="320" height="330" rx="24" fill="#fff"/><rect x="110" y="75" width="210" height="20" rx="10" fill="#b18342"/><rect x="110" y="130" width="190" height="14" rx="7" fill="#bdc8c4"/><rect x="110" y="170" width="230" height="14" rx="7" fill="#d5ddd9"/><path d="M120 245l38 38 82-100" fill="none" stroke="#173b35" stroke-width="18" stroke-linecap="round" stroke-linejoin="round"/></g><text x="770" y="790" font-family="Arial,sans-serif" font-size="38" fill="#173b35">Family Law • Divorce • Custody • Guardianship</text></svg>